Coordinates
version=1
nRows=16
nColumns=40
inDegrees=yes

Units are S.I. units (second, meters, Newtons, ...)
Angles are in degrees.

endheader
time	pelvis_tilt	pelvis_list	pelvis_rotation	pelvis_tx	pelvis_ty	pelvis_tz	hip_flexion_r	hip_adduction_r	hip_rotation_r	knee_angle_r	knee_angle_r_beta	ankle_angle_r	subtalar_angle_r	mtp_angle_r	hip_flexion_l	hip_adduction_l	hip_rotation_l	knee_angle_l	knee_angle_l_beta	ankle_angle_l	subtalar_angle_l	mtp_angle_l	lumbar_extension	lumbar_bending	lumbar_rotation	arm_flex_r	arm_add_r	arm_rot_r	elbow_flex_r	pro_sup_r	wrist_flex_r	wrist_dev_r	arm_flex_l	arm_add_l	arm_rot_l	elbow_flex_l	pro_sup_l	wrist_flex_l	wrist_dev_l
     34.35000000	     -5.05925290	     -4.08665765	     -5.35191174	      0.83326807	      0.92855462	      0.44872476	     27.47999852	     -0.63559702	    -13.20257541	     12.65260311	     12.65260311	      1.56898308	      8.67812811	      7.82683615	      5.73885865	     -4.19926662	    -12.68747113	     15.81554181	     15.81554181	     16.18790585	     -6.28307748	     -5.46354639	     -9.78690331	      3.72954751	      0.04723639	    -12.81500364	    -12.36279971	     -2.70111470	     33.66443173	     46.02083676	      0.00000000	      0.00000000	     12.38284990	    -16.60787965	     -7.15026657	     71.00595667	     46.74652520	      0.00000000	      0.00000000
     34.36357143	     -5.16173809	     -3.92125808	     -5.47444169	      0.83290335	      0.92769994	      0.45038044	     27.44447513	     -0.49880197	    -13.27826887	     12.55310427	     12.55310427	      1.29111820	      8.80135561	      7.91260538	      5.10150134	     -4.03774880	    -12.90091599	     15.29123800	     15.29123800	     16.42653044	     -6.05942859	     -5.55441236	     -9.50732659	      3.48520067	      0.02131819	    -12.57574400	    -12.33855694	     -2.70246471	     33.79226558	     46.01657501	      0.00000000	      0.00000000	     12.83391472	    -16.61709097	     -7.24013265	     71.23550781	     46.76529683	      0.00000000	      0.00000000
     34.37714286	     -5.04823072	     -3.74526330	     -5.55360530	      0.83302965	      0.92711502	      0.45205473	     27.17911460	     -0.45421890	    -13.34050079	     12.88505407	     12.88505407	      1.15680290	      8.78738180	      7.71037252	      4.02639424	     -3.81487179	    -13.18064274	     14.44275418	     14.44275418	     16.64452915	     -5.49461160	     -5.71662118	     -9.43457664	      3.25244329	     -0.03581276	    -12.38448920	    -12.38689595	     -2.75831666	     34.02606716	     46.01040907	      0.00000000	      0.00000000	     13.10856995	    -16.50542651	     -7.46021395	     71.47074933	     46.79527699	      0.00000000	      0.00000000
     34.39071429	     -5.01156081	     -3.58935842	     -5.56136066	      0.83324640	      0.92627676	      0.45376550	     26.97083119	     -0.42422748	    -13.32309846	     13.46822236	     13.46822236	      1.07299399	      8.43496431	      7.14868314	      3.12127642	     -3.64491716	    -13.43443956	     13.74319090	     13.74319090	     16.81285964	     -4.94812424	     -5.93936577	     -9.24064186	      3.04791126	     -0.15996519	    -12.06886743	    -12.48133445	     -2.88536428	     34.48539791	     45.99969533	      0.00000000	      0.00000000	     13.33107879	    -16.38883952	     -7.82243966	     71.73827323	     46.83832232	      0.00000000	      0.00000000
     34.40428571	     -4.94873253	     -3.44499567	     -5.50435913	      0.83373672	      0.92535016	      0.45552113	     26.72212381	     -0.41085864	    -13.13599933	     14.26179486	     14.26179486	      1.08173787	      7.77756588	      6.36611040	      2.22251103	     -3.50043937	    -13.60103970	     13.13890365	     13.13890365	     17.07215615	     -4.41318126	     -6.09294628	     -9.04802459	      2.88561965	     -0.35723423	    -11.75347188	    -12.59798394	     -3.05183807	     35.03440313	     45.98758359	      0.00000000	      0.00000000	     13.42936788	    -16.27087822	     -8.17707290	     71.95901797	     46.87881564	      0.00000000	      0.00000000
     34.41785714	     -4.84737248	     -3.37670246	     -5.39970425	      0.83442276	      0.92434055	      0.45736535	     26.28061347	     -0.27152804	    -12.65170504	     14.86740399	     14.86740399	      0.61448873	      6.65192717	      3.96261972	      1.36653721	     -3.48323066	    -13.82845753	     12.74395582	     12.74395582	     17.50407473	     -3.72722828	     -6.07091253	     -8.90165956	      2.83287410	     -0.72805466	    -11.64201338	    -12.75398466	     -3.51047857	     36.42838197	     45.95016569	      0.00000000	      0.00000000	     13.27929727	    -15.97554223	     -9.11710880	     72.55080088	     46.99342914	      0.00000000	      0.00000000
     34.43142857	     -4.78131185	     -3.23745526	     -5.23754093	      0.83521624	      0.92326036	      0.45912206	     26.03955341	     -0.32494904	    -12.38786715	     15.89976924	     15.89976924	      0.97638188	      5.88612152	      3.29588567	      0.59319050	     -3.37127364	    -13.78691398	     12.40381845	     12.40381845	     17.90114128	     -3.33258766	     -5.94827063	     -8.67362901	      2.73902076	     -0.86861570	    -11.18537586	    -12.90920019	     -3.62961485	     36.80417820	     45.94358389	      0.00000000	      0.00000000	     13.28637498	    -15.95044164	     -9.13041170	     72.49412539	     47.00184889	      0.00000000	      0.00000000
     34.44500000	     -4.70352642	     -3.21095952	     -5.01896361	      0.83606285	      0.92225933	      0.46101384	     25.62051703	     -0.17637699	    -11.79137791	     16.55676654	     16.55676654	      0.76449216	      4.50581046	      1.01090485	      0.01011844	     -3.48846121	    -13.88862980	     12.53371704	     12.53371704	     18.98701329	     -2.50133362	     -4.52003185	     -8.51249870	      2.77587611	     -1.06540744	    -11.03209978	    -13.09300559	     -4.17736090	     38.15593677	     45.90942554	      0.00000000	      0.00000000	     13.11580306	    -15.72191410	     -9.46363661	     72.71203258	     47.07697147	      0.00000000	      0.00000000
     34.45857143	     -4.61214780	     -3.19463336	     -4.78680497	      0.83688258	      0.92138815	      0.46288157	     25.33467546	     -0.11958453	    -11.42728112	     17.50534042	     17.50534042	      1.36610927	      3.70882663	      0.46683736	     -0.54744341	     -3.58816385	    -13.70154619	     12.64951645	     12.64951645	     19.38781523	     -2.38088881	     -4.31867413	     -8.36244231	      2.85084917	     -1.24025195	    -10.47399727	    -13.28230802	     -4.32944390	     38.53591301	     45.90512199	      0.00000000	      0.00000000	     13.04023776	    -15.64943333	     -9.39382424	     72.54230699	     47.07618994	      0.00000000	      0.00000000
     34.47214286	     -4.58642210	     -3.26781230	     -4.49806152	      0.83761807	      0.92065986	      0.46483038	     25.05757770	      0.10085906	    -10.79845296	     18.22889783	     18.22889783	      1.73577839	      2.28076992	     -0.48619531	     -0.75779340	     -3.87935224	    -13.44623118	     13.31063674	     13.31063674	     20.21955674	     -2.29244692	     -3.16029935	     -8.17533303	      3.04594459	     -1.41839222	    -10.02766127	    -13.48863589	     -4.77215531	     39.45897354	     45.89036967	      0.00000000	      0.00000000	     12.77477906	    -15.48344948	     -9.44983549	     72.40047816	     47.09750729	      0.00000000	      0.00000000
     34.48571429	     -4.44417929	     -3.37882055	     -4.20419074	      0.83830315	      0.92032832	      0.46675241	     24.67317850	      0.25401079	    -10.56008203	     18.96112307	     18.96112307	      2.40685218	      1.68378595	     -1.07393956	     -0.97062735	     -4.22483207	    -13.05990116	     14.14697400	     14.14697400	     20.57712919	     -2.53090345	     -2.84588457	     -8.18698237	      3.27066079	     -1.48414348	     -9.40987868	    -13.72790932	     -4.98916588	     39.92851606	     45.88628544	      0.00000000	      0.00000000	     12.58822673	    -15.29950122	     -9.37128721	     72.19596258	     47.09425913	      0.00000000	      0.00000000
     34.49928571	     -4.41734415	     -3.51290993	     -3.85947954	      0.83883473	      0.92012453	      0.46865221	     24.37398546	      0.45633656	    -10.30756676	     19.52146410	     19.52146410	      2.95613192	      0.75812804	     -1.68078953	     -0.70859099	     -4.66869674	    -12.53793259	     15.60295181	     15.60295181	     20.98868921	     -3.17092121	     -2.31910717	     -8.04339339	      3.59141280	     -1.59801873	     -8.76314214	    -13.95088397	     -5.32295302	     40.60763395	     45.87953168	      0.00000000	      0.00000000	     12.24723151	    -15.10990798	     -9.31345039	     71.87605439	     47.09200142	      0.00000000	      0.00000000
     34.51285714	     -4.30020959	     -3.71317267	     -3.53266095	      0.83931737	      0.92030437	      0.47063384	     23.91161753	      0.72588711	    -10.13960974	     19.91825659	     19.91825659	      3.53955104	      0.03989144	     -2.29946269	     -0.35201753	     -5.20889892	    -11.89796991	     17.40169374	     17.40169374	     21.32911251	     -4.05662453	     -1.86697410	     -8.00910980	      3.94795203	     -1.60483426	     -8.07039014	    -14.21645554	     -5.70521740	     41.30291768	     45.87458652	      0.00000000	      0.00000000	     11.90747743	    -14.86221227	     -9.24327902	     71.52930595	     47.08916048	      0.00000000	      0.00000000
     34.52642857	     -4.11778129	     -3.91620563	     -3.14371427	      0.83962901	      0.92091782	      0.47248678	     23.31710471	      0.95121491	    -10.17221736	     20.16426781	     20.16426781	      4.13724880	     -0.39046556	     -2.75873563	      0.20159700	     -5.79029754	    -11.16425174	     19.61205686	     19.61205686	     21.25733023	     -5.14089129	     -1.81037497	     -8.15949043	      4.38782949	     -1.53652949	     -7.28890256	    -14.47883295	     -5.98998841	     41.85001468	     45.87188507	      0.00000000	      0.00000000	     11.56369299	    -14.63157740	     -9.13798459	     71.16997060	     47.07967910	      0.00000000	      0.00000000
     34.54000000	     -3.88538127	     -4.12382368	     -2.80056005	      0.83988520	      0.92179049	      0.47451234	     22.60831663	      1.20672038	    -10.25137911	     20.27994260	     20.27994260	      4.70193307	     -0.65655767	     -3.14287997	      0.94456706	     -6.41208561	    -10.36699423	     22.25211847	     22.25211847	     20.94594988	     -6.43976991	     -1.98534267	     -8.35357036	      4.71347034	     -1.40542787	     -6.38884253	    -14.77919320	     -6.25427031	     42.38676687	     45.86969179	      0.00000000	      0.00000000	     11.12829130	    -14.35101284	     -8.99774747	     70.75692728	     47.06465901	      0.00000000	      0.00000000
     34.55357143	     -3.89402050	     -4.36642135	     -2.36129453	      0.83984310	      0.92245346	      0.47636180	     22.06415472	      1.49340576	    -10.48383403	     20.16350482	     20.16350482	      5.10668879	     -0.92079225	     -3.56803424	      2.39487475	     -7.08997976	     -9.21643048	     25.59083249	     25.59083249	     20.29326641	     -8.20488382	     -2.37645526	     -8.24278352	      5.13712940	     -1.40479408	     -5.55436464	    -15.05374623	     -6.62283242	     43.05056957	     45.86649644	      0.00000000	      0.00000000	     10.51536991	    -14.05870810	     -8.83014140	     70.14501016	     47.04569316	      0.00000000	      0.00000000
